# This file uses centimeters as units for non-parametric coordinates.

mtllib Palm_Leaf.mtl
g default
v 0.364364 -0.383641 0.500000
v 0.523557 -0.076355 0.500000
v -0.523557 0.076355 0.500000
v -0.364364 0.383641 0.500000
v -0.523557 0.076355 -0.500000
v -0.364364 0.383641 -0.500000
v 0.364364 -0.383641 -0.500000
v 0.523557 -0.076355 -0.500000
v -1.866080 0.618395 0.333046
v -1.765924 0.811724 0.333046
v -1.765924 0.811724 -0.333046
v -1.866080 0.618395 -0.333046
v -2.873507 0.747560 0.160060
v -2.942897 0.880105 0.160060
v -2.942897 0.880105 -0.160060
v -2.873507 0.747560 -0.160060
vt 0.375000 0.000000
vt 0.625000 0.000000
vt 0.375000 0.250000
vt 0.625000 0.250000
vt 0.375000 0.500000
vt 0.625000 0.500000
vt 0.375000 0.750000
vt 0.625000 0.750000
vt 0.375000 1.000000
vt 0.625000 1.000000
vt 0.875000 0.000000
vt 0.875000 0.250000
vt 0.125000 0.000000
vt 0.125000 0.250000
vt 0.375000 0.250000
vt 0.625000 0.250000
vt 0.625000 0.500000
vt 0.375000 0.500000
vt 0.375000 0.250000
vt 0.625000 0.250000
vt 0.625000 0.500000
vt 0.375000 0.500000
vn 0.000000 0.000000 1.000000
vn 0.000000 0.000000 1.000000
vn -0.046014 0.023838 0.998656
vn -0.059358 0.030751 0.997763
vn -0.885936 -0.463807 0.000000
vn -0.885936 -0.463807 0.000000
vn -0.885936 -0.463807 0.000000
vn -0.885936 -0.463807 0.000000
vn -0.059358 0.030751 -0.997763
vn -0.046014 0.023838 -0.998656
vn 0.000000 0.000000 -1.000000
vn 0.000000 0.000000 -1.000000
vn 0.887921 -0.459997 0.000000
vn 0.887921 -0.459997 0.000000
vn 0.887921 -0.459997 0.000000
vn 0.887921 -0.459997 0.000000
vn 0.459997 0.887921 0.000000
vn 0.459997 0.887921 0.000000
vn 0.372030 0.928221 0.000000
vn 0.372030 0.928221 0.000000
vn -0.459997 -0.887921 0.000000
vn -0.459997 -0.887921 0.000000
vn -0.415214 -0.909724 0.000000
vn -0.415214 -0.909724 0.000000
vn -0.108847 0.048125 0.992893
vn -0.125900 0.035837 0.991395
vn 0.224280 0.974525 0.000000
vn 0.224280 0.974525 0.000000
vn -0.125900 0.035837 -0.991395
vn -0.108847 0.048125 -0.992893
vn -0.311302 -0.950311 0.000000
vn -0.311302 -0.950311 0.000000
vn -0.155125 0.014645 0.987786
vn -0.155125 0.014645 0.987786
vn 0.058001 0.998317 0.000000
vn 0.058001 0.998317 0.000000
vn -0.155125 0.014645 -0.987786
vn -0.155125 0.014645 -0.987786
vn -0.127172 -0.991881 0.000000
vn -0.127172 -0.991881 0.000000
s 1
g pCube1
usemtl initialShadingGroup
f 1/1/1 2/2/2 4/4/3 3/3/4
s off
f 13/19/5 14/20/6 15/21/7 16/22/8
s 2
f 5/5/9 6/6/10 8/8/11 7/7/12
s off
f 7/7/13 8/8/14 2/10/15 1/9/16
s 3
f 2/2/17 8/11/18 6/12/19 4/4/20
s 4
f 7/13/21 1/1/22 3/3/23 5/14/24
s 1
f 3/3/4 4/4/3 10/16/25 9/15/26
s 3
f 4/4/20 6/6/19 11/17/27 10/16/28
s 2
f 6/6/10 5/5/9 12/18/29 11/17/30
s 4
f 5/5/24 3/3/23 9/15/31 12/18/32
s 1
f 9/15/26 10/16/25 14/20/33 13/19/34
s 3
f 10/16/28 11/17/27 15/21/35 14/20/36
s 2
f 11/17/30 12/18/29 16/22/37 15/21/38
s 4
f 12/18/32 9/15/31 13/19/39 16/22/40
